<svg xmlns="http://www.w3.org/2000/svg" viewBox="0 0 64 64">
  <rect width="64" height="64" rx="14" fill="#020617"/>
  <path d="M20 13h24a6 6 0 0 1 6 6v20a6 6 0 0 1-6 6H20a6 6 0 0 1-6-6V19a6 6 0 0 1 6-6Z" fill="none" stroke="#fff" stroke-width="4"/>
  <path d="M20 23h24M24 33h6m10 0h-6" stroke="#fff" stroke-width="4" stroke-linecap="round"/>
  <path d="m23 51 5-6m13 6-5-6" stroke="#fff" stroke-width="4" stroke-linecap="round"/>
  <circle cx="24" cy="39" r="3" fill="#fff"/>
  <circle cx="40" cy="39" r="3" fill="#fff"/>
</svg>
